# xmcd
#
# Track frame offsets:
#	150
#	10887
#	24183
#	36799
#	50871
#	62842
#	72882
#	85329
#	97957
#	109729
#	120362
#	131088
#	145654
#	158770
#	171371
#	183301
#	195140
#	204967
#	215664
#	226119
#
# Disc length: 3186 seconds
#
# Revision: 0
# Processed by: cddbd v1.5.1PL2 Copyright (c) Steve Scherf et al.
# Submitted via: audiograbber 1.83.01
#
DISCID=080c7014
DTITLE=Various Artist - Country and Western Original Masters - CD 10
DYEAR=1900
DGENRE=Country
TTITLE0=Hank Williams (1950) - Moanin' the Blues (Williams)
TTITLE1=Carl Smith (1950) - I Overlooked an Orchid (Story - Smith - Lynn)
TTITLE2=Hank Williams (1950) - I Just Don't Like This Kind of Living (Williams)
TTITLE3=Tennessee Ernie Ford (1950) - Mister and Mississippi (Gordon)
TTITLE4=Jesse James (1950) - Darling I Don't Understand (Hallmark - James)
TTITLE5=Jimmy Prince (1950) - Live and Let Live (Walker - Sullivan)
TTITLE6=Richard Prine (1950) - Adam's Apple (Anderson - Mullins)
TTITLE7=Texas Top Hands (1950) - 12th Street Rag (Bowman)
TTITLE8=Hank Williams (1950) - Why Should We Try Anymore (Williams)
TTITLE9=Gene Autry (1951) - Don't Fence Me In (Porter)
TTITLE10=Hank Williams (1951) - I Can't Help It (Williams)
TTITLE11=Gene Autry (1951) - South of the Border (Carr - Kennedy)
TTITLE12=Hank Williams (1951) - Hey Good Lookin' (Williams)
TTITLE13=Tennessee Ernie Ford (1951) - Stack-O-Lee (Busch)
TTITLE14=Johnny Bond (1951) - Sick, Sober and Sorry (Atchison - Hazelwood)
TTITLE15=Tennessee Ernie Ford (1951) - Ocean of Tears (Ryder - Dolan)
TTITLE16=Hank Wililams (1951) - Honky Tonk Blues (Williams)
TTITLE17=Spade Cooley (1951) - Indian Summer (Colley)
TTITLE18=Andy Schroder (1951) - Prairie Dog Ramble (Schroder)
TTITLE19=Hank Williams (1951) - Jambalaya (Williams)
EXTD=
EXTT0=
EXTT1=
EXTT2=
EXTT3=
EXTT4=
EXTT5=
EXTT6=
EXTT7=
EXTT8=
EXTT9=
EXTT10=
EXTT11=
EXTT12=
EXTT13=
EXTT14=
EXTT15=
EXTT16=
EXTT17=
EXTT18=
EXTT19=
PLAYORDER=
